<?xml version="1.0"?>
<svg xmlns="http://www.w3.org/2000/svg" id="Capa_1" enable-background="new 0 0 512 512" height="512px" viewBox="0 0 512 512" width="512px" class=""><g><g><g><g><path d="m447.702 492h-24.042v-14.633c0-20.476-16.658-37.133-37.133-37.133h-5.505v-144.84h22.638c5.523 0 10-4.477 10-10v-54.445c0-5.523-4.477-10-10-10h-15.851v-83.496c0-2.78-1.158-5.436-3.195-7.328l-29.269-27.181c-4.046-3.758-10.374-3.524-14.132.523s-3.524 10.374.522 14.132l26.074 24.214v79.136h-16.957v-21.689c0-30.899-20.174-57.175-48.042-66.348 17.007-13.707 27.906-34.702 27.906-58.195 0-41.199-33.517-74.717-74.716-74.717s-74.716 33.518-74.716 74.716c0 23.493 10.899 44.488 27.906 58.195-27.868 9.173-48.042 35.449-48.042 66.348v21.689h-52.808c-5.523 0-10 4.477-10 10v54.445c0 5.523 4.477 10 10 10h22.638v144.84h-5.505c-20.476 0-37.133 16.658-37.133 37.133v14.634h-24.042c-5.523 0-10 4.477-10 10s4.477 10 10 10h383.404c5.523 0 10-4.477 10-10s-4.477-10-10-10zm-246.418-417.284c0-30.171 24.545-54.716 54.716-54.716s54.716 24.545 54.716 54.716c0 30.17-24.545 54.716-54.716 54.716s-54.716-24.545-54.716-54.716zm-20.136 124.544c0-27.475 22.353-49.828 49.828-49.828h50.049c27.475 0 49.828 22.353 49.828 49.828v21.689h-149.705zm-30.169 96.134h59.815c5.523 0 10-4.477 10-10s-4.477-10-10-10h-92.454v-34.445h275.32v34.445h-92.454c-5.523 0-10 4.477-10 10s4.477 10 10 10h59.815v144.84h-210.042zm-42.639 196.606v-14.633c0-9.447 7.686-17.133 17.133-17.133h261.053c9.447 0 17.133 7.686 17.133 17.133v14.633z" data-original="#000000" class="active-path" data-old_color="#000000" fill="#E2E1E1"/></g><g><path d="m255.82 295.39c-4.117 0-7.906-2.62-9.36-6.472-1.487-3.938-.274-8.535 2.972-11.217 3.103-2.563 7.545-3.008 11.096-1.122 3.775 2.004 5.894 6.37 5.128 10.576-.858 4.705-5.043 8.235-9.836 8.235z" data-original="#000000" class="active-path" data-old_color="#000000" fill="#E2E1E1"/></g></g></g></g> </svg>
